PathFileType	4	(X/Y/Z)	C:\Users\°ÂÌØÂü\Desktop\20210112\bx_n_5_502-Unnamed.trc
DataRate	CameraRate	NumFrames	NumMarkers	Units	OrigDataRate	OrigDataStartFrame	OrigNumFrames
50.00	50.00	       5	0	mm	50.00	306	       489
Frame#	Time	
		

306	6.100	-468.09351	282.73801	1364.52820	-741.54523	240.04593	1039.06287	-532.89172	103.69402	1169.94287	-833.32770	285.65671	867.86157	-721.35309	-7.20513	807.62018	-779.85919	146.96068	571.43719	-816.29974	278.84943	734.99207	-827.36298	254.59656	631.21912				-740.14185	13.69496	525.81592	-816.46179	250.60107	566.57440	-754.94873	209.56155	537.20728				-720.70020	158.57715	221.91251	-773.24622	231.31886	201.51070	-882.41638	296.11505	144.71382	-676.01129	51.26028	161.98473	-677.14435	175.18964	162.47052	-594.58636	219.06819	174.11057	-660.63617	299.01166	156.00279	-623.79541	306.95129	158.26907	-557.61951	253.91267	163.78778	-528.01666	304.29150	146.56325	-252.60588	129.73570	1583.54053	-451.84827	-59.57349	1361.73889	-840.22473	262.50763	487.92038	-518.03754	-72.92859	143.08511	-549.40332	-22.26972	162.63890	-781.25952	70.30806	568.68817				-795.35242	33.82226	172.93907	-799.35150	182.46622	181.50412	-822.11328	-51.86864	476.65070	-600.83026	28.34613	167.05424	-762.54852	-24.94846	203.43219	-875.87036	-78.46882	141.11601	-727.77179	64.29882	218.14693	-797.91455	-36.88560	563.24817	-605.33661	-73.16705	157.99303	-648.23859	-68.42387	161.08476	-806.24371	-65.75616	751.27905										-806.97052	-74.64624	867.49786	-799.54706	-39.04686	611.00702	
307	6.120	-463.74295	282.83664	1357.14783	-742.65814	239.41969	1035.64429	-533.09052	104.03204	1163.81494	-835.93396	286.41635	867.57257	-723.56097	-6.53333	807.03180	-781.48297	147.87279	570.97040	-818.74908	279.26804	734.74951	-829.40643	255.29187	631.01526				-742.01923	13.53372	525.57416	-818.03027	250.92157	566.46625	-756.15118	209.80309	537.02399				-720.73871	158.95694	221.85550	-773.42029	231.56644	201.60965	-882.64453	296.10654	144.70854	-676.01129	51.26028	161.98473	-677.56689	175.52408	162.37445	-594.72620	219.15723	173.95247	-660.64960	299.09686	156.14752	-623.75037	306.98096	158.30905	-557.56952	254.00316	163.88124	-528.00720	304.27814	146.56587	-247.91042	130.41887	1574.43274	-447.68985	-58.93529	1354.12610	-841.88751	262.87354	487.06931	-518.05463	-72.73093	143.19897	-549.26404	-22.35686	162.59744	-783.01392	70.44746	568.66418				-795.41730	33.75953	173.05843	-799.62891	182.73503	181.69666	-823.37311	-51.75802	476.32169	-601.02679	28.54347	166.92384	-762.82013	-24.91856	203.16763	-875.78961	-78.57214	141.09050	-727.78754	64.12525	218.26192	-799.35889	-37.36574	563.26349	-605.12720	-73.17897	157.38907	-648.23212	-68.43729	161.08777	-808.57623	-65.09574	750.24182										-809.81641	-74.37370	867.13141	-801.39099	-38.80189	610.77521	
308	6.140	-459.90082	282.76416	1349.35938	-743.53644	238.23935	1032.64368	-532.41821	104.29649	1158.11206	-838.26764	286.85651	867.51514	-725.78516	-6.51825	806.76697	-782.79340	147.65057	571.54205	-820.44171	279.50229	734.31787	-830.91437	255.64488	630.44183				-743.09235	13.82907	525.67084	-819.68634	251.15436	566.07684	-758.00079	209.99995	537.28345				-720.77966	159.05519	222.24051	-773.58173	231.74548	201.61874	-882.53979	296.06784	144.81898	-676.01129	51.26028	161.98473	-677.56689	175.52408	162.37445	-594.74335	219.01566	174.02409	-660.64960	299.09686	156.14752	-623.76550	307.01859	158.22087	-557.73810	253.93773	163.91179	-528.03265	304.22031	146.59911	-243.54564	130.72902	1565.44861	-443.63721	-57.92973	1346.56995	-842.88025	262.75128	486.92746	-518.07465	-72.91493	143.16161	-549.42810	-22.30854	162.58257	-785.30615	70.56948	568.10126				-795.29120	33.52292	172.75447	-799.46692	182.75912	181.28374	-824.54974	-52.10130	476.08493	-600.66711	28.28575	167.15388	-762.71637	-25.20213	203.14386	-875.55725	-78.58643	141.07306	-728.11694	64.28140	218.23703	-800.91388	-37.17145	562.90387	-605.04199	-73.05439	157.23965	-648.26526	-68.50321	160.97209	-811.19586	-65.11501	750.05743										-812.48615	-74.33543	866.77448	-802.96527	-38.72157	610.55231	
309	6.160	-456.01956	282.76132	1342.06506	-746.93591	239.48874	1033.32690				-840.50739	287.07446	866.81274	-728.63831	-6.30026	806.59454	-783.50427	147.65460	571.20709	-822.50104	280.12967	733.58539	-832.37775	255.93309	629.94434				-744.96033	14.14352	525.93005	-820.57996	251.00713	565.78406	-758.46655	209.79739	537.16461				-720.86688	158.85800	222.19443	-773.43677	231.71075	201.58269	-882.59406	296.17114	144.82938	-676.01129	51.26028	161.98473	-677.56689	175.52408	162.37445	-594.67975	219.12335	174.03845	-660.54828	298.88055	156.01439	-623.73462	307.08673	158.08374	-557.72534	253.91281	163.95096	-527.95276	304.17508	146.46315	-239.37910	131.23615	1556.76428	-439.75937	-57.17351	1339.53479	-843.44226	263.10196	486.60553	-518.11176	-73.02621	143.14230	-549.58234	-22.29644	162.55029	-786.54932	70.42856	567.65472				-795.51746	33.68030	172.94034	-799.54370	182.63484	181.48306	-825.95801	-51.94941	475.68744	-600.93604	28.51793	166.96428	-762.72498	-25.08731	203.19746	-875.69330	-78.64300	141.12302	-728.15948	64.11594	218.46538	-802.61273	-36.61537	562.10712	-605.41595	-72.89322	157.55382	-648.26526	-68.50321	160.97209	-814.11609	-64.64215	749.60864										-815.03479	-73.57755	865.93268	-804.75519	-38.77172	610.23608	
310	6.180	-452.24863	283.21161	1335.08813	-748.64307	239.95862	1032.29175	-932.52472	93.24098	1089.34338	-842.35437	287.59601	866.89246	-730.90607	-6.44383	806.61774	-785.73541	147.71745	570.97827	-824.27502	280.30460	733.55774	-834.02307	256.13626	629.58203				-745.96710	14.25428	525.83899	-821.92255	251.13969	565.78241	-759.83752	210.07509	536.83435				-721.12744	158.62154	222.23187	-773.34991	231.53004	201.49202	-882.62134	296.14355	144.72720	-676.01129	51.26028	161.98473	-677.37469	175.27344	162.54968	-594.80914	219.07071	173.96927	-660.44281	299.03894	156.02086	-623.55969	306.93610	158.06073	-557.49799	253.94514	163.88229	-528.01666	304.29150	146.56325	-235.25108	131.80759	1548.22266	-436.05219	-56.26568	1332.34448	-844.70758	263.30139	486.15039	-518.16766	-73.14896	143.15179	-549.61707	-22.25307	162.53546	-788.11957	70.72337	567.49988				-795.22601	33.58863	172.74785	-799.48456	182.72070	181.22015	-826.96375	-51.62545	475.27051	-600.93604	28.51793	166.96428	-762.87372	-25.30776	203.23636	-875.87097	-78.64214	141.18979	-728.42755	64.21567	218.72099	-803.85321	-36.71817	562.37677	-605.18732	-72.89721	157.07585	-648.34229	-68.52788	161.13535	-816.27563	-64.94385	749.33228										-817.16211	-74.41244	866.12341	-806.27209	-38.88787	610.35895	
